<svg width="138" height="22" viewBox="0 0 138 22" fill="none" xmlns="http://www.w3.org/2000/svg">
<path d="M8.932 21.14C6.43067 21.14 4.48 20.524 3.08 19.292C1.68 18.0413 0.98 16.212 0.98 13.804C0.98 11.3773 1.68 9.548 3.08 8.316C4.48 7.06533 6.43067 6.44 8.932 6.44H15.932C17.5747 6.44 18.8253 6.832 19.684 7.616C20.5613 8.38133 21 9.48267 21 10.92C21 13.8507 19.3107 15.316 15.932 15.316H5.348C5.74 17.052 6.93467 17.92 8.932 17.92H20.272V21.14H8.932ZM8.932 9.66C7.00933 9.66 5.824 10.472 5.376 12.096H15.736C16.1093 12.096 16.3987 11.984 16.604 11.76C16.828 11.536 16.94 11.228 16.94 10.836C16.94 10.052 16.5387 9.66 15.736 9.66H8.932ZM23.5244 21V6.58H42.2004C43.843 6.58 45.047 6.99067 45.8124 7.812C46.5777 8.61467 46.9604 9.67867 46.9604 11.004V21H42.9004V11.508C42.9004 10.3693 42.3217 9.8 41.1644 9.8H37.2724V21H33.2124V9.8H27.5844V21H23.5244ZM49.9111 21V6.58H53.9711V21H49.9111ZM49.8831 4.2V1.036H53.9991V4.2H49.8831ZM57.0478 21V0.979999H61.1078V21H57.0478ZM64.1845 21V6.58H68.2445V21H64.1845ZM64.1565 4.2V1.036H68.2725V4.2H64.1565ZM78.7133 21.14C76.2119 21.14 74.2613 20.524 72.8613 19.292C71.4613 18.0413 70.7613 16.212 70.7613 13.804C70.7613 11.3773 71.4613 9.548 72.8613 8.316C74.2613 7.06533 76.2119 6.44 78.7133 6.44H83.8933C86.3946 6.44 88.3453 7.06533 89.7453 8.316C91.1453 9.548 91.8453 11.3773 91.8453 13.804C91.8453 16.212 91.1453 18.0413 89.7453 19.292C88.3453 20.524 86.3946 21.14 83.8933 21.14H78.7133ZM78.7133 17.92H83.8933C85.1066 17.92 86.0306 17.584 86.6653 16.912C87.3186 16.24 87.6453 15.204 87.6453 13.804C87.6453 12.3853 87.3186 11.34 86.6653 10.668C86.0306 9.996 85.1066 9.66 83.8933 9.66H78.7133C77.4999 9.66 76.5666 9.996 75.9133 10.668C75.2786 11.34 74.9613 12.3853 74.9613 13.804C74.9613 15.204 75.2786 16.24 75.9133 16.912C76.5666 17.584 77.4999 17.92 78.7133 17.92ZM94.512 21V16.996H98.992V21H94.512ZM102.274 21V6.58H113.306C114.93 6.58 116.125 6.99067 116.89 7.812C117.656 8.61467 118.038 9.67867 118.038 11.004V14H113.922V11.508C113.922 10.388 113.362 9.828 112.242 9.828H106.39V21H102.274ZM120.267 21V0.979999H124.327V6.58H132.839C134.481 6.58 135.676 6.99067 136.423 7.812C137.188 8.61467 137.571 9.67867 137.571 11.004V21H133.511V11.48C133.511 10.36 132.951 9.8 131.831 9.8H124.327V21H120.267Z" fill="black"/>
</svg>
