<!--?xml version="1.0" standalone="no"?-->
              <svg id="sw-js-blob-svg" viewBox="0 0 100 100" xmlns="http://www.w3.org/2000/svg" version="1.1">
                    <defs> 
                        <linearGradient id="sw-gradient" x1="0" x2="1" y1="1" y2="0">
                            <stop id="stop1" stop-color="rgba(67, 217, 173, 1)" offset="0%"></stop>
                            <stop id="stop2" stop-color="rgba(77, 91, 206, 1)" offset="100%"></stop>
                        </linearGradient>
                    </defs>
                <path fill="url(#sw-gradient)" d="M17.7,-21.6C23.6,-16.2,29.5,-11.2,31.5,-4.8C33.6,1.6,31.7,9.4,27.3,14.5C22.8,19.5,15.8,21.8,8.7,24.8C1.6,27.8,-5.6,31.5,-12,30.3C-18.4,29.1,-23.9,23.1,-26.5,16.4C-29.1,9.7,-28.7,2.4,-28.4,-6C-28.1,-14.3,-27.9,-23.6,-23.2,-29.3C-18.4,-34.9,-9.2,-36.8,-1.7,-34.8C5.9,-32.8,11.8,-27,17.7,-21.6Z" width="100%" height="100%" transform="translate(50 50)" stroke-width="0" style="transition: all 0.3s ease 0s;"></path>
              </svg>